<svg width="36" height="36" viewBox="0 0 36 36" fill="none" xmlns="http://www.w3.org/2000/svg">
<path d="M18 36C22.7739 36 27.3523 34.1036 30.7279 30.7279C34.1036 27.3523 36 22.7739 36 18C36 13.2261 34.1036 8.64773 30.7279 5.27208C27.3523 1.89642 22.7739 -1.15626e-06 18 -1.57361e-06C13.2261 -1.99096e-06 8.64773 1.89642 5.27208 5.27207C1.89643 8.64773 1.99096e-06 13.2261 1.57361e-06 18C1.15626e-06 22.7739 1.89642 27.3523 5.27208 30.7279C8.64773 34.1036 13.2261 36 18 36V36ZM10.125 19.125C9.82663 19.125 9.54048 19.0065 9.32951 18.7955C9.11853 18.5845 9 18.2984 9 18C9 17.7016 9.11853 17.4155 9.32951 17.2045C9.54048 16.9935 9.82663 16.875 10.125 16.875L23.1593 16.875L18.3285 12.0465C18.2239 11.9419 18.1409 11.8177 18.0843 11.6811C18.0277 11.5444 17.9986 11.3979 17.9986 11.25C17.9986 11.1021 18.0277 10.9556 18.0843 10.8189C18.1409 10.6823 18.2239 10.5581 18.3285 10.4535C18.4331 10.3489 18.5573 10.2659 18.6939 10.2093C18.8306 10.1527 18.9771 10.1236 19.125 10.1236C19.2729 10.1236 19.4194 10.1527 19.5561 10.2093C19.6927 10.2659 19.8169 10.3489 19.9215 10.4535L26.6715 17.2035C26.7763 17.308 26.8594 17.4321 26.9161 17.5688C26.9728 17.7055 27.002 17.852 27.002 18C27.002 18.148 26.9728 18.2945 26.9161 18.4312C26.8594 18.5679 26.7763 18.692 26.6715 18.7965L19.9215 25.5465C19.7103 25.7577 19.4237 25.8764 19.125 25.8764C18.8263 25.8764 18.5397 25.7577 18.3285 25.5465C18.1173 25.3353 17.9986 25.0487 17.9986 24.75C17.9986 24.4513 18.1173 24.1647 18.3285 23.9535L23.1593 19.125L10.125 19.125Z" fill="#263238"/>
</svg>
