<svg width="36" height="36" viewBox="0 0 36 36" fill="none" xmlns="http://www.w3.org/2000/svg">
<path d="M18 0C13.2261 0 8.64773 1.89642 5.27208 5.27208C1.89642 8.64773 0 13.2261 0 18C0 22.7739 1.89642 27.3523 5.27208 30.7279C8.64773 34.1036 13.2261 36 18 36C22.7739 36 27.3523 34.1036 30.7279 30.7279C34.1036 27.3523 36 22.7739 36 18C36 13.2261 34.1036 8.64773 30.7279 5.27208C27.3523 1.89642 22.7739 0 18 0V0ZM25.875 16.875C26.1734 16.875 26.4595 16.9935 26.6705 17.2045C26.8815 17.4155 27 17.7016 27 18C27 18.2984 26.8815 18.5845 26.6705 18.7955C26.4595 19.0065 26.1734 19.125 25.875 19.125H12.8407L17.6715 23.9535C17.7761 24.0581 17.8591 24.1823 17.9157 24.3189C17.9723 24.4556 18.0014 24.6021 18.0014 24.75C18.0014 24.8979 17.9723 25.0444 17.9157 25.1811C17.8591 25.3177 17.7761 25.4419 17.6715 25.5465C17.5669 25.6511 17.4427 25.7341 17.3061 25.7907C17.1694 25.8473 17.0229 25.8764 16.875 25.8764C16.7271 25.8764 16.5806 25.8473 16.4439 25.7907C16.3073 25.7341 16.1831 25.6511 16.0785 25.5465L9.3285 18.7965C9.22373 18.692 9.14061 18.5679 9.0839 18.4312C9.02718 18.2945 8.99799 18.148 8.99799 18C8.99799 17.852 9.02718 17.7055 9.0839 17.5688C9.14061 17.4321 9.22373 17.308 9.3285 17.2035L16.0785 10.4535C16.2897 10.2423 16.5763 10.1236 16.875 10.1236C17.1737 10.1236 17.4603 10.2423 17.6715 10.4535C17.8827 10.6647 18.0014 10.9513 18.0014 11.25C18.0014 11.5487 17.8827 11.8353 17.6715 12.0465L12.8407 16.875H25.875Z" fill="#263238"/>
</svg>
