<svg width="78" height="62" viewBox="0 0 78 62" fill="none" xmlns="http://www.w3.org/2000/svg">
<path d="M11.7 27.125C16.0022 27.125 19.5 23.6496 19.5 19.375C19.5 15.1004 16.0022 11.625 11.7 11.625C7.39781 11.625 3.9 15.1004 3.9 19.375C3.9 23.6496 7.39781 27.125 11.7 27.125ZM66.3 27.125C70.6022 27.125 74.1 23.6496 74.1 19.375C74.1 15.1004 70.6022 11.625 66.3 11.625C61.9978 11.625 58.5 15.1004 58.5 19.375C58.5 23.6496 61.9978 27.125 66.3 27.125ZM70.2 31H62.4C60.255 31 58.3172 31.8598 56.9034 33.2523C61.815 35.9285 65.3006 40.7602 66.0563 46.5H74.1C76.2572 46.5 78 44.7684 78 42.625V38.75C78 34.4754 74.5022 31 70.2 31ZM39 31C46.5441 31 52.65 24.9332 52.65 17.4375C52.65 9.9418 46.5441 3.875 39 3.875C31.4559 3.875 25.35 9.9418 25.35 17.4375C25.35 24.9332 31.4559 31 39 31ZM48.36 34.875H47.3484C44.8134 36.0859 41.9981 36.8125 39 36.8125C36.0019 36.8125 33.1987 36.0859 30.6516 34.875H29.64C21.8888 34.875 15.6 41.1234 15.6 48.825V52.3125C15.6 55.5215 18.2203 58.125 21.45 58.125H56.55C59.7797 58.125 62.4 55.5215 62.4 52.3125V48.825C62.4 41.1234 56.1112 34.875 48.36 34.875ZM21.0966 33.2523C19.6828 31.8598 17.745 31 15.6 31H7.8C3.49781 31 0 34.4754 0 38.75V42.625C0 44.7684 1.74281 46.5 3.9 46.5H11.9316C12.6994 40.7602 16.185 35.9285 21.0966 33.2523Z" fill="black"/>
</svg>
