<svg width="65" height="53" viewBox="0 0 65 53" fill="none" xmlns="http://www.w3.org/2000/svg">
<g clip-path="url(#clip0)">
<path d="M59.5969 31.0825L64.9315 9.62631C65.3166 8.07713 64.0285 6.60191 62.2905 6.60191H17.9662L16.9318 1.97954C16.6741 0.827406 15.565 0 14.2784 0H2.70833C1.21254 0 0 1.1084 0 2.47572V4.1262C0 5.49351 1.21254 6.60191 2.70833 6.60191H10.5944L18.5217 42.0289C16.6252 43.0259 15.3472 44.8953 15.3472 47.0386C15.3472 50.229 18.1765 52.8153 21.6667 52.8153C25.1568 52.8153 27.9861 50.229 27.9861 47.0386C27.9861 45.4218 27.2586 43.961 26.0876 42.9124H49.7456C48.5747 43.961 47.8472 45.4218 47.8472 47.0386C47.8472 50.229 50.6765 52.8153 54.1667 52.8153C57.6568 52.8153 60.4861 50.229 60.4861 47.0386C60.4861 44.7515 59.0317 42.775 56.9225 41.8391L57.5451 39.3349C57.9302 37.7857 56.6421 36.3105 54.9041 36.3105H24.6139L23.8753 33.0096H56.9559C58.2205 33.0096 59.3167 32.2097 59.5969 31.0825Z" fill="black"/>
</g>
<defs>
<clipPath id="clip0">
<rect width="65" height="52.8153" fill="white"/>
</clipPath>
</defs>
</svg>
