<svg xmlns="http://www.w3.org/2000/svg" viewBox="0 0 500 500"><g id="freepik--background-simple--inject-31"><path d="M358.14,297.52c94.42-60.07-53.69-83.82-78.71-111.53-17.94-19.88,1.45-72.64-28-95.27-30.91-23.78-86.1-14.09-117.64,7.47-47.66,32.57-71.78,147.25-12,176.69,45.31,22.33,94.34-30.3,142.44-14.46C294.49,270.37,306.74,330.22,358.14,297.52Z" style="fill:#407BFF"></path><path d="M358.14,297.52c94.42-60.07-53.69-83.82-78.71-111.53-17.94-19.88,1.45-72.64-28-95.27-30.91-23.78-86.1-14.09-117.64,7.47-47.66,32.57-71.78,147.25-12,176.69,45.31,22.33,94.34-30.3,142.44-14.46C294.49,270.37,306.74,330.22,358.14,297.52Z" style="fill:#fff;opacity:0.9"></path></g><g id="freepik--Shadow--inject-31"><ellipse id="freepik--path--inject-31" cx="250" cy="416.24" rx="193.89" ry="11.32" style="fill:#f5f5f5"></ellipse></g><g id="freepik--character-1--inject-31"><polygon points="157.45 404.81 165.14 403.03 162.14 385.03 154.44 386.82 157.45 404.81" style="fill:#ce7a63"></polygon><path d="M165.35,402l-8.65,2a.57.57,0,0,0-.45.66l1.12,6.91a1.38,1.38,0,0,0,1.65,1.05c3-.75,4.4-1.26,8.2-2.14,2.34-.54,12.33-2.61,15.56-3.36s2.42-3.91,1-3.88c-6.43.13-14.44.11-17-1.08A2.23,2.23,0,0,0,165.35,402Z" style="fill:#263238"></path><polygon points="154.44 386.83 162.14 385.04 163.69 394.31 155.99 396.1 154.44 386.83" style="opacity:0.2"></polygon><path d="M142.89,208.16S153,272.3,156,294.67c3.26,24.51,10.14,96.17,10.14,96.17l-13.94,3.84S139,325.24,133.56,301.42c-5.91-25.85-18.83-93.26-18.83-93.26Z" style="fill:#407BFF"></path><path d="M142.89,208.16S153,272.3,156,294.67c3.26,24.51,10.14,96.17,10.14,96.17l-13.94,3.84S139,325.24,133.56,301.42c-5.91-25.85-18.83-93.26-18.83-93.26Z" style="fill:#fff;opacity:0.5"></path><path d="M126.35,230.69c5.33,13.59,5,40.48,2.73,49.95-3.21-15.55-6.89-34.16-9.72-48.62C120.44,228.31,123.11,222.42,126.35,230.69Z" style="opacity:0.30000000000000004"></path><polygon points="151.86 394.96 166.79 390.85 166.55 384.78 149.73 390.58 151.86 394.96" style="fill:#407BFF"></polygon><path d="M168.37,402.75a10.19,10.19,0,0,1-2.11.2.16.16,0,0,1-.16-.11.18.18,0,0,1,0-.2c.21-.22,2.05-2.21,3.07-2.06a.66.66,0,0,1,.53.4,1,1,0,0,1,0,1A2.19,2.19,0,0,1,168.37,402.75Zm-1.67-.17c1.43-.05,2.44-.33,2.72-.77a.67.67,0,0,0,0-.67.31.31,0,0,0-.25-.2C168.6,400.86,167.46,401.8,166.7,402.58Z" style="fill:#407BFF"></path><path d="M166.3,402.94h-.08a.18.18,0,0,1-.13-.12c0-.09-.7-2.26-.09-3.18a.94.94,0,0,1,.7-.43.69.69,0,0,1,.77.39c.37.8-.42,2.66-1.08,3.3A.13.13,0,0,1,166.3,402.94Zm.35-3.35a.62.62,0,0,0-.35.25,4.06,4.06,0,0,0,0,2.55,3.73,3.73,0,0,0,.79-2.63c0-.1-.13-.21-.4-.18Z" style="fill:#407BFF"></path><path d="M145.68,148.1c.76,2.1,1.57,4.39,2.42,6.56s1.7,4.38,2.61,6.53a96.14,96.14,0,0,0,6,12.26l.85,1.33.33.51a1.82,1.82,0,0,0,.2.29,3.34,3.34,0,0,0,.45.53,1.87,1.87,0,0,0,1.23.08,8.37,8.37,0,0,0,2.33-.78c3.48-1.65,7.21-4.84,10.5-7.9l4.77,3.51a43.87,43.87,0,0,1-4.47,6.51,31.94,31.94,0,0,1-6.05,5.73,18.25,18.25,0,0,1-4.29,2.27,12.11,12.11,0,0,1-6,.6,11.38,11.38,0,0,1-5.89-2.91,12.94,12.94,0,0,1-1-1.06l-.46-.53-.31-.41-1.27-1.65A83,83,0,0,1,139.84,166c-1.06-2.32-2.08-4.64-3-7s-1.78-4.67-2.55-7.2Z" style="fill:#ce7a63"></path><path d="M140.34,140c-7.82-1.82-12.57,3.17-10.22,13a147.5,147.5,0,0,0,5.34,16.51c.46,1.21.88,2.29,1.23,3.16l17.77-9.9C152.5,155,145.58,141.23,140.34,140Z" style="fill:#263238"></path><path d="M140.68,149.29c-4.72-4.21.11,12.87,2.09,20l5.22-2.91C147.47,161.43,144.31,152.52,140.68,149.29Z" style="opacity:0.30000000000000004"></path><polygon points="99.12 408.19 107 408.19 108.17 389.94 100.28 389.94 99.12 408.19" style="fill:#ce7a63"></polygon><path d="M107.42,407.28H98.57a.56.56,0,0,0-.59.54l-.49,7a1.38,1.38,0,0,0,1.37,1.4c3.08-.05,4.56-.23,8.45-.23,2.4,0,12.58.25,15.88.25s3.24-3.27,1.84-3.57c-6.27-1.33-14-3.16-16.26-4.91A2.23,2.23,0,0,0,107.42,407.28Z" style="fill:#263238"></path><polygon points="100.28 389.95 108.17 389.95 107.56 399.36 99.68 399.36 100.28 389.95" style="opacity:0.2"></polygon><path d="M127.5,208.16s.28,59.81-1.18,82.37C124.73,315.24,111,397.08,111,397.08H96.53s7.17-79.85,6.49-104.31c-.73-26.55-2.27-84.61-2.27-84.61Z" style="fill:#407BFF"></path><path d="M127.5,208.16s.28,59.81-1.18,82.37C124.73,315.24,111,397.08,111,397.08H96.53s7.17-79.85,6.49-104.31c-.73-26.55-2.27-84.61-2.27-84.61Z" style="fill:#fff;opacity:0.5"></path><polygon points="95.94 397.08 111.54 397.08 112.45 391.61 95.23 392.46 95.94 397.08" style="fill:#407BFF"></polygon><path d="M110.2,408.65a10,10,0,0,1-2.1-.28.17.17,0,0,1-.13-.14A.18.18,0,0,1,108,408c.26-.17,2.5-1.7,3.46-1.32a.68.68,0,0,1,.42.52,1,1,0,0,1-.24,1A2.13,2.13,0,0,1,110.2,408.65Zm-1.59-.55c1.41.29,2.45.24,2.82-.12a.69.69,0,0,0,.13-.66.32.32,0,0,0-.2-.26C110.84,406.86,109.53,407.52,108.61,408.1Z" style="fill:#407BFF"></path><path d="M108.14,408.38l-.08,0a.2.2,0,0,1-.1-.15c0-.1-.16-2.37.64-3.13a.93.93,0,0,1,.78-.26.7.7,0,0,1,.66.56c.17.86-1,2.5-1.8,3A.17.17,0,0,1,108.14,408.38Zm1.11-3.2a.54.54,0,0,0-.4.16,4.16,4.16,0,0,0-.54,2.51c.69-.58,1.49-1.83,1.37-2.4,0-.1-.08-.23-.35-.26Z" style="fill:#407BFF"></path><path d="M142.89,208.16H100.75c-.27-3.77.7-16,.17-31.6A199.61,199.61,0,0,0,97,142.18c-.18-.85-.37-1.69-.56-2.54,0,0,2.14-.43,5.2-.88,2.55-.37,5.74-.76,8.86-.9a155,155,0,0,1,17.91,0c2.75.25,5.44.71,7.58,1.12,2.74.55,4.35,1,4.35,1S150.54,163.84,142.89,208.16Z" style="fill:#263238"></path><path d="M127.39,163.33a.52.52,0,0,1-.29-.09c-.17-.12-17.46-12.49-23.59-24.57a.5.5,0,0,1,.22-.67.49.49,0,0,1,.67.22c6,11.86,23.11,24.08,23.28,24.21a.5.5,0,0,1,.12.69A.51.51,0,0,1,127.39,163.33Z" style="fill:#407BFF"></path><path d="M127.39,163.33a.52.52,0,0,1-.29-.09.49.49,0,0,1-.12-.69,37.47,37.47,0,0,0,4.89-24.14.51.51,0,0,1,.43-.56.5.5,0,0,1,.56.44,38.44,38.44,0,0,1-5.06,24.83A.49.49,0,0,1,127.39,163.33Z" style="fill:#407BFF"></path><polygon points="134.37 178.29 122.7 178.29 121.48 161.51 133.15 161.51 134.37 178.29" style="fill:#407BFF"></polygon><polygon points="133.84 177.36 123.5 177.36 122.39 162.11 132.74 162.11 133.84 177.36" style="fill:#fff"></polygon><polygon points="128.05 169.81 123.72 169.81 123.31 164.29 127.65 164.29 128.05 169.81" style="fill:#407BFF"></polygon><polygon points="132.29 172.11 123.88 172.11 123.82 171.25 132.23 171.25 132.29 172.11" style="fill:#407BFF"></polygon><polygon points="132.43 174.04 124.02 174.04 123.96 173.19 132.37 173.19 132.43 174.04" style="fill:#407BFF"></polygon><polygon points="131.79 175.98 124.16 175.98 124.1 175.13 131.73 175.13 131.79 175.98" style="fill:#407BFF"></polygon><path d="M100.92,176.56A199.39,199.39,0,0,0,97,142.19c2.82-.25,7.63,0,8.4,4.58C106.22,151.66,105,163.16,100.92,176.56Z" style="opacity:0.30000000000000004"></path><path d="M104.68,149.64l-4.22,14.53-2.12,7.27-2,7.25-.13.45-.06.22,0,.12v0a.92.92,0,0,0,0-.3c0-.16-.08-.14,0,0a4.93,4.93,0,0,0,1,1.74,29.82,29.82,0,0,0,4.8,4.42,131.43,131.43,0,0,0,12.26,8.11l-2.24,5.48a71.16,71.16,0,0,1-7.59-2.55,68.64,68.64,0,0,1-7.35-3.44,34.82,34.82,0,0,1-7.19-5.09,15.74,15.74,0,0,1-3.36-4.5,10.28,10.28,0,0,1-1-3.69,9.7,9.7,0,0,1,.11-2.21l.21-1.12c.92-5.15,2-10.21,3.3-15.23s2.65-10,4.25-14.95Z" style="fill:#ce7a63"></path><path d="M96.44,139.64c-5.25,1.22-11.14,15.05-13.22,22.83-.34,1.32-.62,2.46-.83,3.33-.28,1.15-.43,1.84-.43,1.84l17.62,5c.36-.87.8-2,1.27-3.16A149,149,0,0,0,106.46,153C109,143.18,104.29,137.82,96.44,139.64Z" style="fill:#263238"></path><path d="M127.56,137.79c-5.19-1.23-6.08-4.45-5.7-8a21,21,0,0,1,.43-2.64l-6.48-5.42-4.76-4c1.28,5.77,2.69,16.28-1.24,20.13a16.23,16.23,0,0,0,14.25,7.1C128.54,140.11,127.56,137.79,127.56,137.79Z" style="fill:#ce7a63"></path><path d="M106.64,137.83a29.65,29.65,0,0,1,3.39-.58c1.89,3.22,10,7.77,12.75,7.77,0,0-2.75,1.2-3.44,5.54C115.12,148.19,107,142.12,106.64,137.83Z" style="fill:#fff"></path><path d="M129.52,137.86a6.66,6.66,0,0,0-2.44-.26c.06,3.15-.93,4.61-2.46,6.77a6,6,0,0,1,4,5.15C131.75,146.21,130.7,140.23,129.52,137.86Z" style="fill:#fff"></path><path d="M122.29,127.16a21,21,0,0,0-.43,2.64c-2.43-.49-6.1-2.66-6.43-5.4a11,11,0,0,1,.38-2.66Z" style="opacity:0.2"></path><path d="M108,109c1.24,7.75,1.58,12.34,5.9,16.06,6.49,5.59,15.74,1.35,16.83-6.55,1-7.11-1.21-18.59-9.12-21.15A10.38,10.38,0,0,0,108,109Z" style="fill:#ce7a63"></path><path d="M110.79,117.57c2.72-4.88,4.33-10.71,1.49-13.29,3.83,0,8.36-1.45,10-2.89,3,1.39,6.37,1.2,7.75-2,1.16-2.65-.52-6.22-5.09-5.94-7.28-5.78-20-4.56-16,.39-10.47-.78-11.64,5-7.65,7C95,104.67,96.34,114.33,110.79,117.57Z" style="fill:#263238"></path><path d="M105.84,116.62a8.32,8.32,0,0,0,4.68,3.13c2.39.53,3-1.69,2-3.91-1-2-3.44-4.69-5.62-4.22S104.38,114.66,105.84,116.62Z" style="fill:#ce7a63"></path><path d="M120,110.32c.06.64.45,1.13.86,1.1s.7-.57.64-1.2-.45-1.13-.87-1.1S120,109.69,120,110.32Z" style="fill:#263238"></path><path d="M127.19,109.82c.07.63.45,1.12.86,1.09s.7-.56.64-1.2-.45-1.12-.86-1.09S127.13,109.19,127.19,109.82Z" style="fill:#263238"></path><path d="M125,110.29a23.54,23.54,0,0,0,3.56,5.21,3.59,3.59,0,0,1-3,.78Z" style="fill:#ba4d3c"></path><path d="M123.12,118.17a5.39,5.39,0,0,1-3.86-1.82.19.19,0,0,1,0-.27.19.19,0,0,1,.26,0,5.14,5.14,0,0,0,4.28,1.68.18.18,0,0,1,.2.18.17.17,0,0,1-.17.19A6.17,6.17,0,0,1,123.12,118.17Z" style="fill:#263238"></path><path d="M117.6,108.17a.43.43,0,0,1-.18-.06.37.37,0,0,1-.12-.51,3.62,3.62,0,0,1,2.89-1.76.37.37,0,0,1,.37.37.38.38,0,0,1-.38.38,2.87,2.87,0,0,0-2.25,1.4A.38.38,0,0,1,117.6,108.17Z" style="fill:#263238"></path><path d="M130,107.14a.37.37,0,0,1-.3-.18,3.09,3.09,0,0,0-2.27-1.54.37.37,0,0,1-.35-.4.38.38,0,0,1,.39-.35h0a3.82,3.82,0,0,1,2.87,1.9.37.37,0,0,1-.13.51A.42.42,0,0,1,130,107.14Z" style="fill:#263238"></path><path d="M112.1,193.05l9.43-1-4.94,8.63s-7.14-.72-6.44-4.35Z" style="fill:#ce7a63"></path><path d="M128.36,194.36l-4.67,7.46h0l-7.08-1.17,4.94-8.63Z" style="fill:#ce7a63"></path><path d="M175.24,172.19l7.66-1.63-5.61-6.69s-7,2.86-5,6Z" style="fill:#ce7a63"></path><polygon points="187.25 166.6 182.23 159.65 177.29 163.87 182.9 170.56 187.25 166.6" style="fill:#ce7a63"></polygon></g><g id="freepik--Exposition--inject-31"><path d="M128.16,232.5H241.51a12.44,12.44,0,0,1,12.44,12.44v171.3a0,0,0,0,1,0,0H115.72a0,0,0,0,1,0,0V244.94A12.44,12.44,0,0,1,128.16,232.5Z" style="fill:#407BFF"></path><rect x="281.5" y="244.94" width="1" height="22.95" style="fill:#407BFF"></rect><rect x="281.5" y="273.67" width="1" height="6.89" style="fill:#407BFF"></rect><path d="M153.22,232.5H266.56A12.44,12.44,0,0,1,279,244.94v171.3a0,0,0,0,1,0,0H140.78a0,0,0,0,1,0,0V244.94A12.44,12.44,0,0,1,153.22,232.5Z" style="fill:#407BFF"></path><path d="M128.38,261.48h171.3a0,0,0,0,1,0,0V391.41a0,0,0,0,1,0,0H128.38a8.29,8.29,0,0,1-8.29-8.29V269.77A8.29,8.29,0,0,1,128.38,261.48Z" transform="translate(536.33 116.55) rotate(90)" style="fill:#fff;opacity:0.30000000000000004"></path><path d="M127.28,262.58h171.3a0,0,0,0,1,0,0V390.31a0,0,0,0,1,0,0H127.28A8.29,8.29,0,0,1,119,382V270.87A8.29,8.29,0,0,1,127.28,262.58Z" transform="translate(535.23 117.66) rotate(90)" style="fill:#fff;opacity:0.9"></path><rect x="148.41" y="206.66" width="55.37" height="25.84" rx="7.36" style="fill:#407BFF"></rect><rect x="161.17" y="208.12" width="40.62" height="22.92" rx="6.45" style="fill:#263238"></rect><path d="M153.18,214.56a1.23,1.23,0,0,1-2.46,0,1.23,1.23,0,0,1,2.46,0Z" style="fill:#fff"></path><path d="M153.18,218.48a1.23,1.23,0,1,1-1.23-1.23A1.24,1.24,0,0,1,153.18,218.48Z" style="fill:#fff"></path><polygon points="238.76 191.55 219.65 191.55 222.86 232.5 241.97 232.5 238.76 191.55" style="fill:#407BFF;opacity:0.2"></polygon><polygon points="239.93 188.04 220.82 188.04 224.03 228.99 243.14 228.99 239.93 188.04" style="fill:#407BFF"></polygon><polygon points="240.41 214.17 224.44 214.17 222.51 189.6 238.48 189.6 240.41 214.17" style="fill:#fff;opacity:0.6000000000000001"></polygon><polygon points="241.45 227.43 225.47 227.43 224.73 218.01 240.71 218.01 241.45 227.43" style="fill:#fff;opacity:0.6000000000000001"></polygon><polygon points="240.56 187.81 221.45 187.77 224.58 228.97 243.69 229.01 240.56 187.81" style="fill:#407BFF"></polygon><polygon points="240.98 214.1 225.01 214.06 223.14 189.35 239.11 189.38 240.98 214.1" style="fill:#fff;opacity:0.6000000000000001"></polygon><polygon points="242 227.44 226.02 227.41 225.3 217.93 241.28 217.96 242 227.44" style="fill:#fff;opacity:0.6000000000000001"></polygon><polygon points="241.08 187.29 221.97 187.25 225.1 228.95 244.21 228.99 241.08 187.29" style="fill:#407BFF"></polygon><polygon points="241.51 213.9 225.53 213.86 223.66 188.84 239.64 188.88 241.51 213.9" style="fill:#fff;opacity:0.6000000000000001"></polygon><polygon points="242.53 227.4 226.54 227.36 225.82 217.77 241.81 217.8 242.53 227.4" style="fill:#fff;opacity:0.6000000000000001"></polygon><polygon points="218.04 191.55 219.65 191.55 222.86 232.5 221.26 232.5 218.04 191.55" style="fill:#407BFF;opacity:0.4"></polygon></g><g id="freepik--character-2--inject-31"><path d="M383.78,163.55c.47,1.09.82,2,1.17,3s.68,1.92,1,2.88c.64,1.92,1.2,3.85,1.73,5.78,1,3.88,1.89,7.78,2.58,11.71l.26,1.47.06.37.07.45a8.78,8.78,0,0,1,.11,1.23,11.47,11.47,0,0,1-.74,4.27,20.53,20.53,0,0,1-3.61,6,41.53,41.53,0,0,1-9.46,8.16l-2.83-3.48a61.56,61.56,0,0,0,6.62-8.75,15.65,15.65,0,0,0,1.86-4.27,4,4,0,0,0,.08-1.49l-.57-2.21c-1-3.7-2-7.37-3.1-11-.54-1.81-1.14-3.61-1.72-5.39-.29-.89-.6-1.78-.91-2.65l-.93-2.5Z" style="fill:#b55b52"></path><path d="M377.94,207.48l2.73,5.87-3.75,2.19s-7.35-10.73-1.81-11.08Z" style="fill:#b55b52"></path><path d="M362.84,407.71a10.61,10.61,0,0,0,2.34-.31.21.21,0,0,0,.16-.17.21.21,0,0,0-.09-.21c-.3-.2-3-1.94-4-1.47a.7.7,0,0,0-.41.59,1.19,1.19,0,0,0,.34,1.11A2.52,2.52,0,0,0,362.84,407.71Zm1.75-.61c-1.54.3-2.7.25-3.15-.16a.8.8,0,0,1-.22-.74.31.31,0,0,1,.18-.27C361.94,405.69,363.49,406.43,364.59,407.1Z" style="fill:#407BFF"></path><path d="M365.13,407.4a.2.2,0,0,0,.11,0,.2.2,0,0,0,.1-.18c0-.11,0-2.66-1-3.51a1.09,1.09,0,0,0-.89-.28.74.74,0,0,0-.71.59c-.2,1,1.41,2.91,2.26,3.39Zm-1.5-3.59a.65.65,0,0,1,.46.19c.57.5.77,1.94.82,2.79-.84-.68-1.85-2.11-1.72-2.72,0-.1.07-.22.34-.25Z" style="fill:#407BFF"></path><path d="M363.44,133c-1,5.26-3.2,15.91.47,19.41,0,0-1.43,5.34-11.2,5.34-10.74,0-5.13-5.34-5.13-5.34,5.86-1.4,5.71-5.75,4.69-9.83Z" style="fill:#b55b52"></path><path d="M344.25,156.54c-1.48.19,2-4.52,2.59-5,1.38-1.11,19.39-2.05,19.3.7-.06,1.18-.49,3.48-1.27,4.23S357.19,154.6,344.25,156.54Z" style="fill:#263238"></path><path d="M346.13,120.3a.41.41,0,0,1-.32-.21,3.35,3.35,0,0,0-2.47-1.75.42.42,0,0,1-.4-.44.43.43,0,0,1,.45-.4,4.2,4.2,0,0,1,3.15,2.18.41.41,0,0,1-.16.57A.38.38,0,0,1,346.13,120.3Z" style="fill:#263238"></path><path d="M343.22,125.05a19.35,19.35,0,0,1-2.88,4.36,3.08,3.08,0,0,0,2.5.66Z" style="fill:#a02724"></path><path d="M344,123.87c-.05.71-.47,1.26-.94,1.23s-.8-.64-.75-1.35.48-1.27.94-1.23S344,123.16,344,123.87Z" style="fill:#263238"></path><path d="M343.41,122.57l-1.68-.62S342.51,123.35,343.41,122.57Z" style="fill:#263238"></path><polygon points="375.44 407.19 366.58 407.19 367.27 386.68 376.13 386.68 375.44 407.19" style="fill:#b55b52"></polygon><path d="M365.87,406.17h10a.69.69,0,0,1,.7.6l1.14,7.88a1.42,1.42,0,0,1-1.42,1.57c-3.47-.06-5.14-.26-9.52-.26-2.69,0-6.63.28-10.35.28s-3.91-3.68-2.36-4c6.94-1.49,8-3.55,10.37-5.52A2.35,2.35,0,0,1,365.87,406.17Z" style="fill:#263238"></path><g style="opacity:0.2"><polygon points="376.13 386.68 367.27 386.68 366.87 398.57 375.73 398.57 376.13 386.68"></polygon></g><path d="M337,166.38c-1.76,4.42-3.65,8.63-5.78,12.83a108.54,108.54,0,0,1-7.1,12.38c-.71,1-1.41,2-2.21,3-.42.51-.77,1-1.25,1.51a13.57,13.57,0,0,1-1.85,1.7,13.16,13.16,0,0,1-4.34,2.09,15.9,15.9,0,0,1-4.34.57,24.88,24.88,0,0,1-7.72-1.32,31.4,31.4,0,0,1-3.46-1.35,31.8,31.8,0,0,1-3.32-1.72l1.89-4.07c4.05,1.08,8.57,1.81,12.18,1.29a7.32,7.32,0,0,0,4.11-1.75,6.8,6.8,0,0,0,.61-.7l.86-1.21c.59-.83,1.15-1.75,1.7-2.65,1.11-1.84,2.17-3.76,3.18-5.73s2-4,3-6c1.89-4,3.75-8.2,5.47-12.26Z" style="fill:#b55b52"></path><path d="M333.52,154.31c-4.4,1.07-9.82,13.16-9.82,13.16l10.48,13.42s10.82-15.31,9.38-20C342.05,156,338.86,153,333.52,154.31Z" style="fill:#407BFF"></path><path d="M299.57,192.63,293,190.56l-1.45,6.9s6.46,1.26,9-1.56Z" style="fill:#b55b52"></path><polygon points="286.87 191.35 288.12 196.6 291.53 197.46 292.98 190.56 286.87 191.35" style="fill:#b55b52"></polygon><path d="M368.09,123.22c-1.19,8.71-1.51,12.42-6.27,16.58-7.15,6.26-17.59,2.89-19-6-1.29-8,.87-20.9,9.7-23.74A12,12,0,0,1,368.09,123.22Z" style="fill:#b55b52"></path><path d="M348.42,128.17c6.91,12.08,10.41,13.72,15.75,15.72,0,0,2.46-7.43,7.79-12.06,7.18-6.22,3-18.08-1.38-19.5,2.18-7-23.44-9-26.17,1.45C342.45,121.28,348.42,128.17,348.42,128.17Z" style="fill:#263238"></path><path d="M352.44,125.83a8.68,8.68,0,0,1-3,4.93c-2.06,1.7-3.84.37-3.91-1.92-.05-2.06.95-5.43,3.32-6.26S352.86,123.55,352.44,125.83Z" style="fill:#b55b52"></path><path d="M347.25,207.77s5.14,60.8,10.48,95.07c4.31,27.68,7.7,92.37,7.7,92.37h12.08s5.76-62.48,3.57-89.85c-5.53-69.27,4.18-81.53-7.35-97.59Z" style="fill:#263238"></path><path d="M351,247c1.63,16,3.66,34.21,5.78,49.07,3.41-8,7-18.95,7.69-41.58C364.85,239.23,356.43,236.25,351,247Z" style="opacity:0.2"></path><path d="M319.14,403.91a.2.2,0,0,0,.18-.1.19.19,0,0,0,0-.24c-.3-.34-2.92-3.31-4.15-3.16a.7.7,0,0,0-.54.39,1.17,1.17,0,0,0,0,1.09c.58,1.15,3.08,1.76,4.51,2Zm-3.89-3.08c.69,0,2.24,1.4,3.31,2.55-1.94-.42-3.27-1-3.59-1.68a.72.72,0,0,1,0-.71.25.25,0,0,1,.21-.16Z" style="fill:#407BFF"></path><path d="M319.14,403.91h.05a.21.21,0,0,0,.15-.15c0-.09.71-2.39,0-3.66a1.51,1.51,0,0,0-.94-.76c-.57-.16-.83.06-1,.26-.52.88.72,3.42,1.53,4.25A.22.22,0,0,0,319.14,403.91Zm-1.1-4.2a.8.8,0,0,1,.25,0,1.12,1.12,0,0,1,.7.56,4.92,4.92,0,0,1,.05,3c-.77-1-1.54-2.92-1.22-3.44C317.83,399.79,317.88,399.71,318,399.71Z" style="fill:#407BFF"></path><polygon points="328.04 409.97 319.76 406.39 322.1 395.8 324.47 385.14 324.74 383.9 333.33 386.07 333.03 387.47 330.74 397.79 328.04 409.97" style="fill:#b55b52"></polygon><polygon points="330.74 397.79 321.94 396.54 324.47 385.14 333.03 387.47 330.74 397.79" style="opacity:0.2"></polygon><path d="M337.75,207.77s-6,65.48-8.24,96.5c-2,28-8.13,86.79-8.13,86.79l11.95,1.78s16-66.19,18.5-85.34c7.17-55,21.21-72,17.78-99.73Z" style="fill:#263238"></path><path d="M320.05,403l9.27,3.64a.69.69,0,0,1,.43.82l-1.82,7.74a1.42,1.42,0,0,1-1.9.95c-3.21-1.32-4.69-2.12-8.76-3.72-2.51-1-7.79-2.77-11.25-4.13s-2.3-4.85-.74-4.59c7,1.15,10.3.23,13.2-.74A2.29,2.29,0,0,1,320.05,403Z" style="fill:#263238"></path><polygon points="319.35 393.61 334.51 396.22 336.25 390.5 320.02 387.69 319.35 393.61" style="fill:#407BFF"></polygon><polygon points="363.78 395.45 379.17 395.45 379.98 390.05 363.69 389.5 363.78 395.45" style="fill:#407BFF"></polygon><path d="M387.72,168.1l-8.89,7.08-5.34,4.26s-.56-1.49-1.24-3.62c-1.29-4.13-3-10.66-1.81-13.67,1.83-4.76,5.32-9.05,9.67-8.1C383.79,154.86,387.72,168.1,387.72,168.1Z" style="fill:#407BFF"></path><path d="M377.57,176.19l-4.08,3.25s-.56-1.49-1.24-3.62l3.17-15.71Z" style="opacity:0.2"></path><path d="M333.52,154.31s-4.22,1.48,4.23,53.46h36c-.6-14.64-.62-23.67,6.38-53.72a106,106,0,0,0-15.28-2,112.68,112.68,0,0,0-16.34,0C341.48,152.68,333.52,154.31,333.52,154.31Z" style="fill:#407BFF"></path><path d="M365.21,143l-3.43-.07c-5.95,8.21.9,8.56.89,15.62s-7.66,11.22,1.77,16.19C357.5,167.45,376.92,163.21,365.21,143Z" style="fill:#263238"></path><path d="M358,140.4a29.43,29.43,0,0,1,.48,3.8,1,1,0,0,0,1,1c1.73,0,5.18,0,6.84,0a1.08,1.08,0,0,0,1-1,41.13,41.13,0,0,0,.19-4.4,1,1,0,0,0-1-1c-2.63,0-5.89.17-7.61.29A1.13,1.13,0,0,0,358,140.4Z" style="fill:#407BFF"></path><path d="M374.27,205.66l1.62,3.22c.13.25-.17.51-.58.51H337.57c-.32,0-.59-.16-.61-.37l-.32-3.22c0-.22.25-.41.61-.41h36.43A.66.66,0,0,1,374.27,205.66Z" style="fill:#407BFF"></path><path d="M374.27,205.66l1.62,3.22c.13.25-.17.51-.58.51H337.57c-.32,0-.59-.16-.61-.37l-.32-3.22c0-.22.25-.41.61-.41h36.43A.66.66,0,0,1,374.27,205.66Z" style="fill:#fff;opacity:0.5"></path><path d="M369.38,209.73h1c.2,0,.34-.1.33-.22l-.46-4.18c0-.12-.18-.23-.37-.23h-1c-.19,0-.34.11-.33.23l.46,4.18C369,209.63,369.18,209.73,369.38,209.73Z" style="fill:#263238"></path><path d="M345.72,209.73h1c.19,0,.34-.1.33-.22l-.46-4.18c0-.12-.18-.23-.38-.23h-1c-.2,0-.34.11-.33.23l.46,4.18C345.36,209.63,345.53,209.73,345.72,209.73Z" style="fill:#263238"></path></g></svg>