<?xml version="1.0" encoding="UTF-8" standalone="no"?><!DOCTYPE svg PUBLIC "-//W3C//DTD SVG 1.1//EN" "http://www.w3.org/Graphics/SVG/1.1/DTD/svg11.dtd"><svg width="100%" height="100%" viewBox="0 0 100 100" version="1.1" xmlns="http://www.w3.org/2000/svg" xmlns:xlink="http://www.w3.org/1999/xlink" xml:space="preserve" xmlns:serif="http://www.serif.com/" style="fill-rule:evenodd;clip-rule:evenodd;stroke-linejoin:round;stroke-miterlimit:2;"><path d="M58.459,42.317c-1.156,1.16 -3.036,1.16 -4.196,0.004l0,-0.004l-5.082,-5.055c-1.14,-1.179 -1.113,-3.06 0.067,-4.2c1.148,-1.112 2.973,-1.116 4.124,-0.008l5.083,5.071c1.16,1.16 1.16,3.04 0,4.2l0.004,-0.008Zm10.687,7.683c0,0.388 -0.079,0.776 -0.229,1.136c-0.147,0.356 -0.364,0.685 -0.641,0.958l-14.907,14.844c-1.204,1.116 -3.08,1.045 -4.196,-0.155c-1.061,-1.14 -1.057,-2.913 0.008,-4.049l9.804,-9.765l-25.159,0c-1.639,0 -2.969,-1.33 -2.969,-2.969c0,-1.639 1.33,-2.969 2.969,-2.969l32.348,0c0.392,0.004 0.78,0.083 1.14,0.234c0.36,0.15 0.688,0.368 0.962,0.645c0.031,0.028 0.039,0.067 0.067,0.095c0.237,0.253 0.431,0.546 0.57,0.867c0.123,0.317 0.19,0.653 0.202,0.993c0,0.052 0.027,0.091 0.027,0.139l0.004,-0.004Zm20.437,14.824c0,15.287 -9.468,24.759 -24.751,24.759l-29.688,0c-15.188,0 -24.727,-9.472 -24.727,-24.751l0,-10.169c0,-1.651 1.338,-2.993 2.992,-2.993l0.036,0l0,0.068c1.666,0 3.02,1.35 3.028,3.016l0,10.078c0,12.085 6.61,18.695 18.659,18.695l29.688,0c12.057,0 18.707,-6.65 18.707,-18.695l0,-29.688c0,-12.009 -6.646,-18.655 -18.695,-18.655l-29.688,0c-12.045,0 -18.659,6.646 -18.659,18.655c0,1.671 -1.358,3.029 -3.028,3.029c-1.675,0 -3.028,-1.358 -3.028,-3.029c-0.012,-15.259 9.456,-24.727 24.703,-24.727l29.688,0c15.295,0 24.763,9.468 24.763,24.719l0,29.688Z" style="fill-rule:nonzero;"/></svg>