<?xml version="1.0" encoding="UTF-8" standalone="no"?><!DOCTYPE svg PUBLIC "-//W3C//DTD SVG 1.1//EN" "http://www.w3.org/Graphics/SVG/1.1/DTD/svg11.dtd"><svg width="100%" height="100%" viewBox="0 0 100 100" version="1.1" xmlns="http://www.w3.org/2000/svg" xmlns:xlink="http://www.w3.org/1999/xlink" xml:space="preserve" xmlns:serif="http://www.serif.com/" style="fill-rule:evenodd;clip-rule:evenodd;stroke-linejoin:round;stroke-miterlimit:2;"><path d="M18.433,18.638c-1.066,1.075 -1.666,2.525 -1.666,4.041l0,11.963c-0.029,1.533 0.554,3.016 1.625,4.116c1.025,1.059 2.437,1.663 3.912,1.667l11.863,0c1.496,-0.004 2.925,-0.625 3.954,-1.708c1.05,-1.092 1.621,-2.554 1.596,-4.071l0,-11.967c-0.004,-3.083 -2.471,-5.596 -5.55,-5.662l-11.846,0c-1.458,0 -2.863,0.583 -3.888,1.621m15.734,28.233l-11.738,0c-6.671,-0.113 -12.016,-5.558 -12.012,-12.229l0,-11.963c0,-6.675 5.337,-12.125 12.012,-12.262l11.738,0c6.679,0.116 12.025,5.579 11.996,12.262l0,11.963c0.012,3.237 -1.255,6.35 -3.521,8.658c-2.225,2.292 -5.284,3.575 -8.475,3.571m38.704,0.112c-1.817,-0.225 -3.104,-1.875 -2.879,-3.687c0.187,-1.504 1.375,-2.696 2.879,-2.875l4.704,0c1.492,-0.013 2.921,-0.633 3.95,-1.713c1.046,-1.091 1.617,-2.558 1.596,-4.07l0,-11.959c-0.013,-3.079 -2.471,-5.587 -5.546,-5.662l-11.742,0c-3.095,0.033 -5.579,2.571 -5.55,5.662l0,17.888c-0.037,1.796 -1.508,3.229 -3.304,3.225c-0.858,-0.021 -1.671,-0.392 -2.254,-1.021c-0.583,-0.642 -0.887,-1.488 -0.85,-2.35l0,-17.742c-0.017,-3.237 1.242,-6.35 3.496,-8.671c2.221,-2.283 5.271,-3.583 8.462,-3.591l11.721,0c6.629,0.229 11.904,5.629 11.975,12.262l0,11.925c0.046,3.229 -1.175,6.346 -3.4,8.688c-2.2,2.312 -5.237,3.641 -8.425,3.691l-4.833,0Zm-50.463,42.538c-6.625,-0.217 -11.908,-5.608 -11.991,-12.238l0,-11.925c-0.004,-3.233 1.258,-6.345 3.521,-8.658c2.233,-2.283 5.295,-3.575 8.491,-3.567l4.813,0c1.237,-0.133 2.437,0.467 3.083,1.53c0.654,1.075 0.654,2.429 0,3.5c-0.646,1.066 -1.846,1.666 -3.083,1.533l-4.813,0c-3.104,0.033 -5.596,2.562 -5.583,5.662l0,11.813c0.046,3.075 2.508,5.575 5.583,5.662l11.792,0c1.487,0.005 2.912,-0.595 3.946,-1.666c1.05,-1.071 1.637,-2.517 1.637,-4.017l0,-17.717c-0.241,-1.316 0.329,-2.65 1.446,-3.383c1.108,-0.725 2.554,-0.687 3.621,0.1c1.075,0.8 1.567,2.163 1.25,3.467l0,17.662c0.071,6.704 -5.308,12.196 -12.013,12.267l-11.7,-0.025Zm37.875,-24.167l0,11.963c-0.012,1.5 0.567,2.946 1.617,4.016c1.017,1.063 2.421,1.663 3.892,1.667l11.8,0c1.466,-0.004 2.875,-0.604 3.891,-1.667c1.046,-1.07 1.63,-2.516 1.613,-4.016l0,-11.959c0.004,-1.495 -0.579,-2.933 -1.625,-4.004c-1.029,-1.062 -2.446,-1.662 -3.921,-1.662l-11.717,0c-3.091,0.041 -5.562,2.579 -5.529,5.666l-0.021,-0.004Zm5.55,24.229c-6.675,-0.129 -12.008,-5.587 -11.979,-12.266l0,-11.959c-0.062,-6.683 5.296,-12.15 11.979,-12.225l11.721,0c6.679,0.1 12.038,5.546 12.029,12.225l0,11.963c0,6.679 -5.337,12.125 -12.012,12.262l-11.738,0Z" style="fill-rule:nonzero;"/></svg>